<?xml version="1.0" encoding="utf-8"?>
<!-- Generator: Adobe Illustrator 27.7.0, SVG Export Plug-In . SVG Version: 6.00 Build 0)  -->
<svg version="1.1" id="Layer_1" xmlns="http://www.w3.org/2000/svg" xmlns:xlink="http://www.w3.org/1999/xlink" x="0px" y="0px"
	 viewBox="0 0 2489.4 713.6" style="enable-background:new 0 0 2489.4 713.6;" xml:space="preserve">
<style type="text/css">
	.st0{fill:#FFFFFF;}
</style>
<g id="Layer_1_00000069364501404589243120000001001115479226372741_">
	<g>
		<g>
			<polygon class="st0" points="1094.1,328.6 965.7,82.4 787.8,82.4 1094.1,666.4 1399.6,82.4 1222.6,82.4 			"/>
			<path class="st0" d="M2213.5,212.7l-81.8-144.6l-330.5,584.8h192.2l29.6-61.1h217.4l30.6,61.1h192.2L2213.5,212.7z M2076.9,484.9
				l54.8-106l54.9,106H2076.9z"/>
			<rect x="586.6" y="82.5" class="st0" width="166.2" height="570.5"/>
			<polygon class="st0" points="1785.9,235.2 1785.9,82.5 1434.6,82.5 1434.6,652.9 1785.9,652.9 1785.9,501.1 1601.7,501.1 
				1601.7,426.5 1785.9,426.5 1785.9,307 1601.7,307 1601.7,235.2 			"/>
			<polygon class="st0" points="487.7,82.5 321.5,82.5 321.5,304.3 36.8,45.6 36.8,652.9 202.9,652.9 202.9,440.9 487.7,695.1 			
				"/>
			<line class="st0" x1="487.7" y1="82.5" x2="487.7" y2="82.5"/>
		</g>
	</g>
</g>
<g id="Layer_2_00000001627101964022902840000000620986521874560139_">
</g>
</svg>
